<svg width="114" height="21" viewBox="0 0 114 21" fill="none" xmlns="http://www.w3.org/2000/svg">
<path d="M4.544 16.576C4.048 16.544 3.608 16.392 3.224 16.12C2.856 15.848 2.464 15.568 2.048 15.28C1.776 15.008 1.56 14.72 1.4 14.416C1.24 14.096 1.112 13.68 1.016 13.168C0.952 12.864 0.952 12.48 1.016 12.016C1.08 11.552 1.184 11.088 1.328 10.624C1.472 10.144 1.608 9.76 1.736 9.472C1.928 9.024 2.168 8.544 2.456 8.032C2.76 7.504 3.056 7.008 3.344 6.544C3.648 6.064 3.888 5.68 4.064 5.392C4.176 5.28 4.224 5.224 4.208 5.224C4.208 5.208 4.208 5.2 4.208 5.2C4.208 5.12 4.288 4.92 4.448 4.6C4.624 4.264 4.776 3.968 4.904 3.712C5.144 3.456 5.28 3.248 5.312 3.088C5.344 2.928 5.32 2.8 5.24 2.704C5.208 2.64 5.264 2.528 5.408 2.368C5.552 2.208 5.768 2.024 6.056 1.816C6.344 1.608 6.672 1.4 7.04 1.192C7.424 0.887999 7.792 0.727999 8.144 0.711999C8.512 0.679999 8.728 0.751999 8.792 0.927999C8.792 0.976 8.88 0.992 9.056 0.975999C9.248 0.943999 9.464 0.903999 9.704 0.855999C9.96 0.791999 10.184 0.743999 10.376 0.711999C10.456 0.616 10.64 0.544 10.928 0.495999C11.232 0.431999 11.584 0.375999 11.984 0.327999C12.192 0.343999 12.392 0.352 12.584 0.352C12.792 0.335999 12.96 0.319999 13.088 0.303999C13.232 0.287999 13.304 0.279999 13.304 0.279999C13.416 0.248 13.544 0.263999 13.688 0.327999C13.848 0.391999 13.992 0.567999 14.12 0.855999C14.232 1.144 14.192 1.36 14 1.504C13.824 1.648 13.408 1.76 12.752 1.84C12.272 1.904 11.856 1.96 11.504 2.008C11.152 2.04 10.784 2.088 10.4 2.152C10.016 2.2 9.544 2.288 8.984 2.416C8.584 2.496 8.256 2.592 8 2.704C7.744 2.8 7.52 2.952 7.328 3.16C7.136 3.352 6.92 3.632 6.68 4C6.568 4.08 6.424 4.288 6.248 4.624C6.072 4.96 5.896 5.296 5.72 5.632C5.272 6.256 4.88 6.8 4.544 7.264C4.224 7.712 4.096 7.976 4.16 8.056C4.16 8.056 4.248 8.08 4.424 8.128C4.6 8.176 4.72 8.2 4.784 8.2C4.944 8.12 5.136 8.064 5.36 8.032C5.6 8 5.792 7.968 5.936 7.936C6.928 7.68 7.704 7.48 8.264 7.336C8.84 7.192 9.272 7.088 9.56 7.024C9.864 6.944 10.096 6.896 10.256 6.88C10.48 6.704 10.696 6.672 10.904 6.784C11.128 6.896 11.304 7.072 11.432 7.312C11.512 7.488 11.512 7.64 11.432 7.768C11.368 7.896 11.168 8.024 10.832 8.152C10.512 8.28 10.032 8.432 9.392 8.608C8.752 8.784 7.912 9.016 6.872 9.304C5.992 9.56 5.24 9.712 4.616 9.76C3.992 9.808 3.696 9.672 3.728 9.352C3.616 9.288 3.488 9.368 3.344 9.592C3.216 9.8 3.088 10.088 2.96 10.456C2.832 10.824 2.72 11.216 2.624 11.632C2.544 12.048 2.488 12.44 2.456 12.808C2.44 13.16 2.464 13.424 2.528 13.6C2.656 13.968 2.824 14.264 3.032 14.488C3.24 14.696 3.616 14.88 4.16 15.04C4.48 15.056 4.792 15.08 5.096 15.112C5.4 15.144 5.744 15.08 6.128 14.92C7.072 14.76 7.816 14.592 8.36 14.416C8.904 14.24 9.216 14.12 9.296 14.056C9.424 13.992 9.504 13.96 9.536 13.96C9.584 13.944 9.648 13.936 9.728 13.936C9.68 14.016 9.696 14.024 9.776 13.96C9.872 13.88 10 13.76 10.16 13.6C10.336 13.44 10.568 13.288 10.856 13.144C11.144 13 11.4 12.888 11.624 12.808C11.864 12.728 11.992 12.728 12.008 12.808C12.104 12.968 12.088 13.192 11.96 13.48C11.832 13.752 11.6 14.056 11.264 14.392C10.928 14.712 10.496 15.024 9.968 15.328C9.12 15.776 8.2 16.088 7.208 16.264C6.216 16.456 5.328 16.56 4.544 16.576ZM14.5591 15.16C14.4151 15.048 14.3111 14.936 14.2471 14.824C14.1991 14.712 14.1991 14.496 14.2471 14.176C14.2951 13.728 14.3591 13.336 14.4391 13C14.5191 12.648 14.6151 12.248 14.7271 11.8C14.7591 11.608 14.8471 11.28 14.9911 10.816C15.1511 10.352 15.3431 9.848 15.5671 9.304C15.7911 8.76 16.0151 8.248 16.2391 7.768C16.4631 7.272 16.6551 6.904 16.8151 6.664C16.9431 6.568 17.0951 6.528 17.2711 6.544C17.4631 6.56 17.6231 6.632 17.7511 6.76C17.9271 6.904 17.9511 7.16 17.8231 7.528C17.7111 7.88 17.4711 8.44 17.1031 9.208C16.9111 9.64 16.7671 9.968 16.6711 10.192C16.5751 10.4 16.5351 10.528 16.5511 10.576C16.5671 10.608 16.6391 10.584 16.7671 10.504C16.8631 10.328 17.0391 10.128 17.2951 9.904C17.5511 9.664 17.8231 9.432 18.1111 9.208C18.3991 8.984 18.6711 8.784 18.9271 8.608C19.1831 8.432 19.3591 8.32 19.4551 8.272C19.5831 8.192 19.7271 8.128 19.8871 8.08C20.0631 8.016 20.1831 7.968 20.2471 7.936C20.6151 7.76 20.9911 7.696 21.3751 7.744C21.7591 7.792 21.9991 7.936 22.0951 8.176C22.1111 8.304 22.1591 8.4 22.2391 8.464C22.3351 8.528 22.3831 8.56 22.3831 8.56C22.4471 8.56 22.4791 8.584 22.4791 8.632C22.4951 8.68 22.5031 8.704 22.5031 8.704C22.5031 8.816 22.4151 8.888 22.2391 8.92C22.0791 8.936 21.8711 8.952 21.6151 8.968C21.4071 8.984 21.2231 9.024 21.0631 9.088C20.9031 9.152 20.7111 9.232 20.4871 9.328C19.8791 9.68 19.2951 10.024 18.7351 10.36C18.1911 10.696 17.6631 11.144 17.1511 11.704C17.0391 11.832 16.9271 11.984 16.8151 12.16C16.7031 12.336 16.5831 12.528 16.4551 12.736C16.3751 12.816 16.2951 12.992 16.2151 13.264C16.1351 13.536 16.0631 13.8 15.9991 14.056C15.9511 14.296 15.9271 14.44 15.9271 14.488C15.9271 14.488 15.9031 14.568 15.8551 14.728C15.8071 14.872 15.7271 15.016 15.6151 15.16C15.4231 15.416 15.2631 15.544 15.1351 15.544C15.0071 15.544 14.8151 15.416 14.5591 15.16ZM26.9756 15.16C26.6396 15.448 26.2476 15.616 25.7996 15.664C25.3676 15.712 24.9436 15.648 24.5276 15.472C24.1116 15.28 23.7676 14.992 23.4956 14.608C23.2236 14.256 23.0476 13.856 22.9676 13.408C22.8876 12.944 22.8796 12.344 22.9436 11.608C22.9916 10.984 23.1916 10.36 23.5436 9.736C23.8956 9.096 24.3196 8.528 24.8156 8.032C25.3276 7.536 25.8316 7.192 26.3276 7C26.5676 6.84 26.7676 6.768 26.9276 6.784C27.1036 6.784 27.3676 6.8 27.7196 6.832C28.0876 6.88 28.3596 6.952 28.5356 7.048C28.7276 7.144 28.8796 7.272 28.9916 7.432C29.2316 7.672 29.3916 7.912 29.4716 8.152C29.5516 8.376 29.5916 8.6 29.5916 8.824C29.5276 9.176 29.2876 9.608 28.8716 10.12C28.4716 10.616 27.9436 11.024 27.2876 11.344C26.9356 11.456 26.5516 11.504 26.1356 11.488C25.7196 11.472 25.3756 11.368 25.1036 11.176C24.7996 11.048 24.5996 11.072 24.5036 11.248C24.4076 11.408 24.3196 11.808 24.2396 12.448C24.1756 13.056 24.2236 13.504 24.3836 13.792C24.5436 14.064 24.7596 14.224 25.0316 14.272C25.3516 14.336 25.5996 14.384 25.7756 14.416C25.9676 14.432 26.1996 14.36 26.4716 14.2C26.7276 14.04 26.8876 13.952 26.9516 13.936C27.0156 13.904 27.0636 13.872 27.0956 13.84C27.1436 13.792 27.2476 13.688 27.4076 13.528C27.5196 13.416 27.6076 13.336 27.6716 13.288C27.7356 13.224 27.8076 13.192 27.8876 13.192C27.9676 13.192 28.0396 13.232 28.1036 13.312C28.1676 13.376 28.2316 13.424 28.2956 13.456C28.4556 13.456 28.4876 13.552 28.3916 13.744C28.3116 13.936 28.1436 14.168 27.8876 14.44C27.6316 14.696 27.3276 14.936 26.9756 15.16ZM26.9516 10.072C27.1276 9.992 27.3116 9.88 27.5036 9.736C27.6956 9.576 27.8556 9.408 27.9836 9.232C28.1276 9.04 28.1996 8.88 28.1996 8.752C28.1996 8.528 28.0956 8.344 27.8876 8.2C27.6796 8.04 27.3676 8.016 26.9516 8.128C26.7756 8.176 26.5756 8.296 26.3516 8.488C26.1276 8.664 25.9116 8.864 25.7036 9.088C25.5116 9.312 25.3516 9.512 25.2236 9.688C25.1116 9.864 25.0716 9.968 25.1036 10C25.1516 10.08 25.2876 10.144 25.5116 10.192C25.7356 10.224 25.9836 10.232 26.2556 10.216C26.5436 10.2 26.7756 10.152 26.9516 10.072ZM37.9963 15.712C37.8363 15.712 37.6683 15.624 37.4923 15.448C37.3323 15.272 37.1883 15.056 37.0603 14.8C36.9483 14.528 36.8923 14.272 36.8923 14.032C36.8923 13.792 36.9483 13.344 37.0603 12.688C37.1883 12.032 37.3403 11.368 37.5163 10.696C37.6443 10.28 37.6843 10.04 37.6363 9.976C37.5883 9.912 37.3723 10 36.9883 10.24C36.7643 10.352 36.5643 10.472 36.3883 10.6C36.2123 10.712 36.0603 10.84 35.9323 10.984C35.8523 11.048 35.7323 11.152 35.5723 11.296C35.4123 11.44 35.2443 11.576 35.0683 11.704C34.8603 11.864 34.5963 12.088 34.2763 12.376C33.9563 12.664 33.6363 12.952 33.3163 13.24C33.0123 13.528 32.7803 13.752 32.6203 13.912C32.5883 13.976 32.5403 14.032 32.4763 14.08C32.4123 14.128 32.3403 14.16 32.2603 14.176C32.1803 14.176 32.0923 14.16 31.9963 14.128C31.8203 14.08 31.6523 13.976 31.4923 13.816C31.3483 13.656 31.2763 13.472 31.2763 13.264C31.2763 13.104 31.3403 12.832 31.4683 12.448C31.5963 12.048 31.7643 11.568 31.9723 11.008C32.1963 10.448 32.4523 9.856 32.7403 9.232C32.7883 9.152 32.8283 9.056 32.8603 8.944C32.8923 8.816 32.9163 8.68 32.9323 8.536C32.9643 8.392 32.9803 8.256 32.9803 8.128C32.9803 8.048 32.9883 7.968 33.0043 7.888C33.0363 7.792 33.0683 7.704 33.1003 7.624C33.1483 7.528 33.1883 7.464 33.2203 7.432C33.2843 7.304 33.3963 7.272 33.5563 7.336C33.7163 7.384 33.8523 7.496 33.9643 7.672C34.2043 7.896 34.3242 8.176 34.3242 8.512C34.3403 8.848 34.2603 9.264 34.0843 9.76C34.0203 9.872 33.9643 9.984 33.9163 10.096C33.8843 10.192 33.8523 10.28 33.8203 10.36C33.7883 10.424 33.7643 10.48 33.7483 10.528C33.7323 10.56 33.7243 10.576 33.7243 10.576C33.7883 10.576 33.9323 10.504 34.1562 10.36C34.3802 10.216 34.6443 10.056 34.9483 9.88C35.1883 9.704 35.3963 9.544 35.5723 9.4C35.7643 9.24 35.9243 9.12 36.0523 9.04C36.1803 8.944 36.2603 8.896 36.2923 8.896C36.3563 8.896 36.4363 8.872 36.5323 8.824C36.6283 8.776 36.7083 8.72 36.7723 8.656C36.8363 8.592 36.8843 8.56 36.9163 8.56C36.9643 8.544 36.9883 8.536 36.9883 8.536C36.9883 8.536 37.0203 8.536 37.0843 8.536C37.1483 8.52 37.2123 8.48 37.2763 8.416C37.4043 8.32 37.5723 8.296 37.7803 8.344C37.9883 8.376 38.1803 8.456 38.3563 8.584C38.5323 8.712 38.6203 8.856 38.6203 9.016C38.6203 9.08 38.6363 9.136 38.6683 9.184C38.7163 9.216 38.7403 9.232 38.7403 9.232C38.8683 9.232 38.9483 9.432 38.9803 9.832C39.0283 10.232 38.9883 10.616 38.8603 10.984C38.8603 11.224 38.8123 11.512 38.7163 11.848C38.6363 12.184 38.5643 12.504 38.5003 12.808C38.3723 13.208 38.2843 13.56 38.2363 13.864C38.1883 14.168 38.1803 14.424 38.2123 14.632C38.2443 14.84 38.3003 15.008 38.3803 15.136C38.4443 15.248 38.4443 15.376 38.3803 15.52C38.3163 15.648 38.1883 15.712 37.9963 15.712ZM49.9334 17.056C49.8054 17.056 49.6614 16.952 49.5014 16.744C49.3414 16.536 49.2694 16.336 49.2854 16.144C49.3014 15.888 49.3734 15.52 49.5014 15.04C49.6294 14.56 49.7734 14.072 49.9334 13.576C50.0934 13.08 50.2374 12.688 50.3654 12.4C50.4294 12.144 50.4854 11.92 50.5334 11.728C50.5974 11.52 50.6374 11.384 50.6534 11.32C50.7014 11.256 50.7734 11.088 50.8694 10.816C50.9814 10.544 51.0694 10.28 51.1334 10.024C51.1654 9.896 51.2294 9.656 51.3254 9.304C51.4374 8.936 51.5654 8.512 51.7094 8.032C51.8694 7.552 52.0214 7.08 52.1654 6.616C52.3254 6.152 52.4614 5.744 52.5734 5.392C52.6854 5.04 52.7574 4.808 52.7894 4.696C52.9174 4.504 53.0134 4.32 53.0774 4.144C53.1414 3.968 53.1814 3.848 53.1974 3.784C53.2934 3.72 53.3494 3.64 53.3654 3.544C53.3814 3.432 53.3894 3.344 53.3894 3.28C53.3894 3.2 53.4134 3.136 53.4614 3.088C53.5254 3.04 53.5574 2.984 53.5574 2.92C53.6214 2.872 53.6614 2.8 53.6774 2.704C53.6934 2.592 53.7414 2.496 53.8214 2.416L53.9414 2.008L55.3574 1.984C55.3254 2.176 55.2774 2.416 55.2134 2.704C55.1494 2.976 54.9974 3.344 54.7574 3.808C54.6774 4.128 54.5814 4.416 54.4694 4.672C54.3734 4.928 54.3334 5.096 54.3494 5.176C54.3174 5.208 54.2454 5.368 54.1334 5.656C54.0374 5.944 53.9174 6.296 53.7734 6.712C53.6454 7.128 53.5094 7.544 53.3654 7.96C53.2374 8.376 53.1174 8.744 53.0054 9.064C52.9094 9.368 52.8454 9.56 52.8134 9.64C52.6854 9.896 52.5414 10.272 52.3814 10.768C52.2214 11.264 51.9814 11.936 51.6614 12.784C51.5334 13.04 51.3734 13.424 51.1814 13.936C51.0054 14.448 50.8614 14.912 50.7494 15.328C50.5734 15.952 50.4454 16.384 50.3654 16.624C50.3014 16.88 50.2454 17.016 50.1974 17.032C50.1494 17.064 50.0614 17.072 49.9334 17.056ZM50.1254 2.752C49.6774 2.768 49.3414 2.744 49.1174 2.68C48.9094 2.616 48.8374 2.456 48.9014 2.2C48.9494 2.008 49.0534 1.864 49.2134 1.768C49.3734 1.672 49.6054 1.6 49.9094 1.552C50.0854 1.52 50.3094 1.48 50.5814 1.432C50.8694 1.384 51.1414 1.336 51.3974 1.288C51.9254 1.224 52.3574 1.168 52.6934 1.12C53.0454 1.072 53.4054 1.032 53.7734 1C54.1414 0.967999 54.6054 0.935999 55.1654 0.904C55.6294 0.871999 56.0214 0.847999 56.3414 0.831999C56.6774 0.8 56.8454 0.784 56.8454 0.784C56.8934 0.784 57.0614 0.8 57.3494 0.831999C57.6374 0.863999 57.9494 0.903999 58.2854 0.951999C58.6214 1 58.8694 1.056 59.0294 1.12C59.3974 1.2 59.6614 1.312 59.8214 1.456C59.9974 1.6 60.1174 1.808 60.1814 2.08C60.2294 2.272 60.2294 2.392 60.1814 2.44C60.1334 2.472 60.0454 2.52 59.9174 2.584C59.5494 2.696 59.2774 2.752 59.1014 2.752C58.9254 2.752 58.7254 2.712 58.5014 2.632C58.4214 2.552 58.3254 2.48 58.2134 2.416C58.1174 2.352 57.9414 2.304 57.6854 2.272C57.4454 2.224 57.0614 2.184 56.5334 2.152C56.0854 2.2 55.6934 2.224 55.3574 2.224C55.0214 2.224 54.8534 2.264 54.8534 2.344L53.4374 2.416L52.2614 2.536C52.1014 2.552 51.8774 2.576 51.5894 2.608C51.3014 2.624 51.0214 2.648 50.7494 2.68C50.4774 2.696 50.2694 2.72 50.1254 2.752ZM63.9016 15.952C63.7416 15.792 63.5816 15.576 63.4216 15.304C63.2616 15.016 63.1336 14.688 63.0376 14.32C63.0056 14.192 62.9896 14.016 62.9896 13.792C63.0056 13.568 63.0056 13.408 62.9896 13.312C62.9416 13.424 62.8616 13.544 62.7496 13.672C62.6536 13.784 62.5576 13.88 62.4616 13.96C62.3976 14.024 62.2536 14.152 62.0296 14.344C61.8056 14.52 61.5816 14.664 61.3576 14.776C60.8296 15.112 60.3896 15.296 60.0376 15.328C59.7016 15.36 59.3816 15.184 59.0776 14.8C58.8216 14.592 58.6376 14.36 58.5256 14.104C58.4296 13.848 58.4296 13.496 58.5256 13.048C58.5576 12.488 58.6376 11.944 58.7656 11.416C58.8936 10.872 59.1576 10.152 59.5576 9.256C59.8936 8.6 60.1496 8.12 60.3256 7.816C60.5016 7.496 60.6136 7.304 60.6616 7.24C60.9016 7.16 61.1016 7.168 61.2616 7.264C61.4216 7.344 61.5176 7.496 61.5496 7.72C61.6456 7.88 61.6296 8.152 61.5016 8.536C61.3896 8.92 61.1896 9.392 60.9016 9.952C60.6776 10.496 60.4696 11.04 60.2776 11.584C60.1016 12.128 59.9976 12.592 59.9656 12.976C59.9336 13.36 60.0296 13.592 60.2536 13.672C60.3976 13.752 60.6456 13.728 60.9976 13.6C61.3656 13.472 61.7736 13.152 62.2216 12.64C62.6856 12.128 63.1336 11.352 63.5656 10.312C63.6936 9.992 63.7896 9.712 63.8536 9.472C63.9176 9.216 63.9576 8.936 63.9736 8.632C63.9416 8.44 63.9496 8.272 63.9976 8.128C64.0616 7.968 64.1896 7.832 64.3816 7.72C64.4456 7.64 64.5336 7.568 64.6456 7.504C64.7576 7.424 64.8296 7.424 64.8616 7.504L65.2456 7.48C65.3096 7.464 65.3496 7.504 65.3656 7.6C65.3976 7.68 65.4536 7.752 65.5336 7.816C65.7096 7.96 65.7576 8.272 65.6776 8.752C65.5976 9.232 65.3736 9.904 65.0056 10.768C64.7016 11.424 64.4936 11.92 64.3816 12.256C64.2856 12.592 64.2296 12.92 64.2136 13.24C64.2136 13.528 64.2696 13.8 64.3816 14.056C64.4936 14.312 64.6696 14.544 64.9096 14.752C65.0856 14.864 65.1816 14.992 65.1976 15.136C65.2296 15.28 65.2376 15.448 65.2216 15.64C65.1896 15.784 65.0936 15.904 64.9336 16C64.7896 16.08 64.6216 16.12 64.4296 16.12C64.2376 16.12 64.0616 16.064 63.9016 15.952ZM62.3176 5.2C62.2056 5.088 62.1096 4.952 62.0296 4.792C61.9656 4.616 61.9416 4.496 61.9576 4.432C61.9896 4.352 62.0456 4.2 62.1256 3.976C62.2216 3.736 62.3256 3.568 62.4376 3.472C62.4856 3.44 62.5336 3.392 62.5816 3.328C62.6456 3.248 62.7096 3.2 62.7736 3.184C62.9656 3.056 63.1416 3.04 63.3016 3.136C63.4776 3.216 63.6056 3.384 63.6856 3.64C63.8296 3.864 63.8776 4.064 63.8296 4.24C63.7816 4.4 63.6536 4.616 63.4456 4.888C63.2056 5.208 62.9896 5.384 62.7976 5.416C62.6056 5.448 62.4456 5.376 62.3176 5.2ZM65.3896 5.2C65.2776 5.088 65.1816 4.952 65.1016 4.792C65.0376 4.616 65.0136 4.496 65.0296 4.432C65.0616 4.352 65.1176 4.2 65.1976 3.976C65.2936 3.736 65.3976 3.568 65.5096 3.472C65.5576 3.44 65.6056 3.392 65.6536 3.328C65.7176 3.248 65.7816 3.2 65.8456 3.184C66.0376 3.056 66.2136 3.04 66.3736 3.136C66.5496 3.216 66.6776 3.384 66.7576 3.64C66.9016 3.864 66.9496 4.064 66.9016 4.24C66.8536 4.4 66.7256 4.616 66.5176 4.888C66.2776 5.208 66.0616 5.384 65.8696 5.416C65.6776 5.448 65.5176 5.376 65.3896 5.2ZM67.5044 15.16C67.3604 15.048 67.2564 14.936 67.1924 14.824C67.1444 14.712 67.1444 14.496 67.1924 14.176C67.2404 13.728 67.3044 13.336 67.3844 13C67.4644 12.648 67.5604 12.248 67.6724 11.8C67.7044 11.608 67.7924 11.28 67.9364 10.816C68.0964 10.352 68.2884 9.848 68.5124 9.304C68.7364 8.76 68.9604 8.248 69.1844 7.768C69.4084 7.272 69.6004 6.904 69.7604 6.664C69.8884 6.568 70.0404 6.528 70.2164 6.544C70.4084 6.56 70.5684 6.632 70.6964 6.76C70.8724 6.904 70.8964 7.16 70.7684 7.528C70.6564 7.88 70.4164 8.44 70.0484 9.208C69.8564 9.64 69.7124 9.968 69.6164 10.192C69.5204 10.4 69.4804 10.528 69.4964 10.576C69.5124 10.608 69.5844 10.584 69.7124 10.504C69.8084 10.328 69.9844 10.128 70.2404 9.904C70.4964 9.664 70.7684 9.432 71.0564 9.208C71.3444 8.984 71.6164 8.784 71.8724 8.608C72.1284 8.432 72.3044 8.32 72.4004 8.272C72.5284 8.192 72.6724 8.128 72.8324 8.08C73.0084 8.016 73.1284 7.968 73.1924 7.936C73.5604 7.76 73.9364 7.696 74.3204 7.744C74.7044 7.792 74.9444 7.936 75.0404 8.176C75.0564 8.304 75.1044 8.4 75.1844 8.464C75.2804 8.528 75.3284 8.56 75.3284 8.56C75.3924 8.56 75.4244 8.584 75.4244 8.632C75.4404 8.68 75.4484 8.704 75.4484 8.704C75.4484 8.816 75.3604 8.888 75.1844 8.92C75.0244 8.936 74.8164 8.952 74.5604 8.968C74.3524 8.984 74.1684 9.024 74.0084 9.088C73.8484 9.152 73.6564 9.232 73.4324 9.328C72.8244 9.68 72.2404 10.024 71.6804 10.36C71.1364 10.696 70.6084 11.144 70.0964 11.704C69.9844 11.832 69.8724 11.984 69.7604 12.16C69.6484 12.336 69.5284 12.528 69.4004 12.736C69.3204 12.816 69.2404 12.992 69.1604 13.264C69.0804 13.536 69.0084 13.8 68.9444 14.056C68.8964 14.296 68.8724 14.44 68.8724 14.488C68.8724 14.488 68.8484 14.568 68.8004 14.728C68.7524 14.872 68.6724 15.016 68.5604 15.16C68.3684 15.416 68.2084 15.544 68.0804 15.544C67.9524 15.544 67.7604 15.416 67.5044 15.16ZM75.8649 15.472C75.7049 15.36 75.5849 15.256 75.5049 15.16C75.4249 15.064 75.3929 14.928 75.4089 14.752C75.4409 14.512 75.4889 14.264 75.5529 14.008C75.6169 13.736 75.6969 13.472 75.7929 13.216C75.8409 12.928 75.8969 12.64 75.9609 12.352C76.0409 12.064 76.1689 11.792 76.3449 11.536C76.5529 10.944 76.7689 10.36 76.9929 9.784C77.2169 9.192 77.4089 8.576 77.5689 7.936C77.8089 7.36 78.0249 6.848 78.2169 6.4C78.4249 5.952 78.6729 5.376 78.9609 4.672C79.1209 4.304 79.2569 3.896 79.3689 3.448C79.4969 2.984 79.6889 2.576 79.9449 2.224C80.0569 2.08 80.1369 1.96 80.1849 1.864C80.2489 1.752 80.3129 1.648 80.3769 1.552C80.4089 1.456 80.5129 1.424 80.6889 1.456C80.8809 1.488 81.0169 1.56 81.0969 1.672C81.1769 1.656 81.2729 1.76 81.3849 1.984C81.4969 2.208 81.5369 2.384 81.5049 2.512C81.5049 2.688 81.4409 2.88 81.3129 3.088C81.2489 3.152 81.1849 3.248 81.1209 3.376C81.0569 3.488 80.9609 3.64 80.8329 3.832C80.7689 4.04 80.7049 4.248 80.6409 4.456C80.5769 4.664 80.5049 4.856 80.4249 5.032C80.3449 5.208 80.2569 5.384 80.1609 5.56C80.0649 5.736 80.0009 5.88 79.9689 5.992C79.8249 6.36 79.6649 6.72 79.4889 7.072C79.3289 7.408 79.1849 7.768 79.0569 8.152C78.9289 8.52 78.7929 8.912 78.6489 9.328C78.5209 9.728 78.3449 10.112 78.1209 10.48C78.0089 10.64 77.9209 10.856 77.8569 11.128C77.7929 11.4 77.7289 11.664 77.6649 11.92C77.5529 12.208 77.4489 12.472 77.3529 12.712C77.2729 12.952 77.2329 13.104 77.2329 13.168C77.1209 13.52 77.0329 13.872 76.9689 14.224C76.9049 14.56 76.8009 14.856 76.6569 15.112C76.6409 15.352 76.5689 15.512 76.4409 15.592C76.3289 15.672 76.1369 15.632 75.8649 15.472ZM81.6009 15.856C81.3449 15.824 81.1529 15.776 81.0249 15.712C80.8969 15.632 80.6569 15.464 80.3049 15.208C80.1129 15.016 79.8489 14.72 79.5129 14.32C79.1769 13.92 78.8409 13.496 78.5049 13.048C78.1689 12.584 77.8889 12.192 77.6649 11.872L78.6489 10.552C78.8569 10.808 79.0249 11.048 79.1529 11.272C79.2809 11.496 79.3849 11.648 79.4649 11.728C79.8329 12.272 80.1209 12.712 80.3289 13.048C80.5529 13.384 80.7529 13.656 80.9289 13.864C81.1049 14.072 81.2889 14.256 81.4809 14.416C81.6889 14.576 81.9449 14.744 82.2489 14.92C82.2969 14.952 82.3449 15 82.3929 15.064C82.4409 15.128 82.4569 15.224 82.4409 15.352C82.3769 15.528 82.3049 15.64 82.2249 15.688C82.1609 15.72 81.9529 15.776 81.6009 15.856ZM77.5929 11.608C77.4969 11.336 77.5289 11.064 77.6889 10.792C77.8649 10.504 78.0569 10.304 78.2649 10.192C78.3289 10.08 78.3929 10.008 78.4569 9.976C78.5369 9.928 78.5849 9.872 78.6009 9.808C78.6329 9.744 78.7129 9.656 78.8409 9.544C78.9849 9.432 79.1129 9.328 79.2249 9.232C79.4809 9.072 79.7689 8.88 80.0889 8.656C80.4249 8.416 80.7449 8.176 81.0489 7.936C81.3529 7.696 81.6089 7.488 81.8169 7.312C82.0409 7.136 82.1769 7.024 82.2249 6.976C82.2729 6.912 82.3369 6.872 82.4169 6.856C82.5129 6.824 82.6329 6.84 82.7769 6.904C82.9689 6.952 83.0969 7.032 83.1609 7.144C83.2249 7.24 83.2569 7.432 83.2569 7.72C83.3049 7.896 83.2329 8.088 83.0409 8.296C82.8649 8.488 82.5929 8.704 82.2249 8.944C82.0969 9.024 81.9209 9.144 81.6969 9.304C81.4889 9.464 81.3049 9.616 81.1449 9.76C81.0329 9.824 80.8649 9.936 80.6409 10.096C80.4329 10.24 80.2489 10.384 80.0889 10.528C79.9609 10.608 79.7929 10.752 79.5849 10.96C79.3769 11.152 79.1689 11.296 78.9609 11.392C78.4489 11.872 78.1129 12.128 77.9529 12.16C77.7929 12.192 77.6729 12.008 77.5929 11.608ZM86.1185 15.64C85.9105 15.64 85.7425 15.6 85.6145 15.52C85.5025 15.44 85.3585 15.328 85.1825 15.184C84.8785 14.864 84.6625 14.56 84.5345 14.272C84.4065 13.968 84.3665 13.68 84.4145 13.408C84.4625 13.28 84.4785 13.16 84.4625 13.048C84.4625 12.92 84.4625 12.856 84.4625 12.856C84.3825 12.776 84.3585 12.728 84.3905 12.712C84.4225 12.68 84.4545 12.632 84.4865 12.568C84.5825 12.568 84.6145 12.48 84.5825 12.304C84.5505 12.176 84.6145 11.896 84.7745 11.464C84.9345 11.032 85.1345 10.624 85.3745 10.24C85.4705 10.08 85.6145 9.872 85.8065 9.616C85.9985 9.344 86.2065 9.08 86.4305 8.824C86.6705 8.552 86.8865 8.336 87.0785 8.176C87.4785 7.84 87.8305 7.592 88.1345 7.432C88.4385 7.272 88.7665 7.152 89.1185 7.072C89.4705 6.992 89.7105 6.952 89.8385 6.952C89.9825 6.952 90.1745 7.08 90.4145 7.336C90.7825 7.496 91.0465 7.688 91.2065 7.912C91.3825 8.136 91.4945 8.464 91.5425 8.896C91.5905 9.376 91.5505 9.928 91.4225 10.552C91.3105 11.16 90.9345 11.92 90.2945 12.832C89.8945 13.408 89.5265 13.84 89.1905 14.128C88.8545 14.4 88.4545 14.672 87.9905 14.944C87.6545 15.168 87.3505 15.336 87.0785 15.448C86.8065 15.544 86.4865 15.608 86.1185 15.64ZM88.4225 13.096C88.8065 12.664 89.1105 12.256 89.3345 11.872C89.5745 11.488 89.7985 11 90.0065 10.408C90.0705 10.232 90.1105 10.016 90.1265 9.76C90.1425 9.488 90.1345 9.24 90.1025 9.016C90.0865 8.776 90.0305 8.64 89.9345 8.608C89.7425 8.496 89.5105 8.464 89.2385 8.512C88.9665 8.544 88.6705 8.696 88.3505 8.968C87.8545 9.384 87.4225 9.904 87.0545 10.528C86.6865 11.136 86.3265 11.832 85.9745 12.616C85.7345 13.192 85.6785 13.656 85.8065 14.008C85.9505 14.344 86.2465 14.464 86.6945 14.368C87.1585 14.256 87.7345 13.832 88.4225 13.096ZM95.8754 20.584C95.5714 20.712 95.2354 20.752 94.8674 20.704C94.5154 20.672 94.1634 20.568 93.8114 20.392C93.4754 20.216 93.1714 20 92.8994 19.744C92.7874 19.632 92.6674 19.456 92.5394 19.216C92.4274 18.992 92.3394 18.776 92.2754 18.568C92.2274 18.36 92.2354 18.24 92.2994 18.208C92.3634 18.16 92.4514 18.144 92.5634 18.16C92.6754 18.176 92.7794 18.2 92.8754 18.232C92.9874 18.28 93.0434 18.336 93.0434 18.4C93.1394 18.48 93.3074 18.6 93.5474 18.76C93.7874 18.936 93.9714 19.04 94.0994 19.072C94.4354 19.184 94.6834 19.232 94.8434 19.216C95.0034 19.2 95.1474 19.144 95.2754 19.048C95.5314 18.824 95.7314 18.552 95.8754 18.232C96.0194 17.912 96.1714 17.472 96.3314 16.912L96.4034 16.6C96.5314 16.008 96.6754 15.376 96.8354 14.704C96.9954 14.032 97.1314 13.504 97.2434 13.12C97.3234 12.752 97.3474 12.504 97.3154 12.376C97.2994 12.248 97.2274 12.272 97.0994 12.448C97.0354 12.464 96.9474 12.496 96.8354 12.544C96.7394 12.592 96.6274 12.648 96.4994 12.712C96.3074 12.808 96.1154 12.904 95.9234 13C95.7314 13.08 95.5714 13.136 95.4434 13.168C95.3154 13.168 95.1954 13.176 95.0834 13.192C94.9714 13.192 94.9154 13.192 94.9154 13.192C94.7874 13.272 94.5554 13.264 94.2194 13.168C93.8994 13.056 93.6114 12.896 93.3554 12.688C93.2114 12.496 93.1074 12.352 93.0434 12.256C92.9794 12.144 92.9394 12.032 92.9234 11.92C92.9074 11.792 92.8994 11.6 92.8994 11.344C92.8834 11.088 93.0034 10.72 93.2594 10.24C93.5314 9.744 93.8594 9.28 94.2434 8.848C94.5474 8.544 94.9394 8.232 95.4194 7.912C95.8994 7.592 96.3794 7.328 96.8594 7.12C97.3554 6.912 97.7634 6.816 98.0834 6.832C98.2434 6.848 98.3954 6.872 98.5394 6.904C98.6834 6.92 98.8434 6.992 99.0194 7.12C99.2434 7.232 99.4034 7.352 99.4994 7.48C99.5954 7.608 99.7234 7.856 99.8834 8.224C99.9794 8.48 100.051 8.736 100.099 8.992C100.147 9.232 100.171 9.464 100.171 9.688C100.171 9.928 100.139 10.144 100.075 10.336C100.011 10.528 99.9234 10.68 99.8114 10.792C99.7794 10.792 99.7394 10.8 99.6914 10.816C99.6594 10.816 99.6274 10.824 99.5954 10.84C99.4994 10.872 99.4194 10.888 99.3554 10.888C99.3074 10.888 99.2514 10.944 99.1874 11.056C99.1234 11.152 99.0754 11.28 99.0434 11.44C99.0274 11.536 99.0034 11.632 98.9714 11.728C98.9554 11.824 98.9314 11.912 98.8994 11.992C98.8674 12.072 98.8354 12.144 98.8034 12.208C98.7874 12.256 98.7794 12.296 98.7794 12.328C98.7794 12.376 98.7714 12.416 98.7554 12.448C98.7394 12.48 98.7154 12.52 98.6834 12.568C98.6354 12.648 98.5874 12.752 98.5394 12.88C98.5074 12.992 98.4914 13.112 98.4914 13.24L98.3954 13.504C98.3474 13.664 98.2994 13.808 98.2514 13.936C98.2194 14.064 98.2034 14.144 98.2034 14.176L98.1074 14.656C98.0754 14.768 98.0354 14.872 97.9874 14.968C97.9554 15.048 97.9234 15.176 97.8914 15.352C97.8594 15.512 97.8194 15.776 97.7714 16.144C97.4514 17.52 97.1314 18.552 96.8114 19.24C96.4914 19.944 96.1794 20.392 95.8754 20.584ZM94.2194 11.872C94.6354 12.032 95.0674 12.048 95.5154 11.92C95.9634 11.792 96.4754 11.504 97.0514 11.056C97.4194 10.784 97.7234 10.472 97.9634 10.12C98.2194 9.752 98.4034 9.376 98.5154 8.992C98.5954 8.752 98.6194 8.584 98.5874 8.488C98.5554 8.376 98.4514 8.312 98.2754 8.296C98.0034 8.232 97.6594 8.28 97.2434 8.44C96.8274 8.584 96.4034 8.792 95.9714 9.064C95.8914 9.176 95.7954 9.28 95.6834 9.376C95.5714 9.472 95.4674 9.552 95.3714 9.616C95.2914 9.664 95.2514 9.688 95.2514 9.688C95.2354 9.72 95.2114 9.76 95.1794 9.808C95.1634 9.856 95.1234 9.896 95.0594 9.928C94.8994 10.072 94.7394 10.288 94.5794 10.576C94.4194 10.864 94.2994 11.136 94.2194 11.392C94.1554 11.648 94.1554 11.808 94.2194 11.872ZM102.175 16C101.871 16.08 101.623 16.016 101.431 15.808C101.255 15.6 101.151 15.28 101.119 14.848C101.087 14.416 101.135 13.904 101.263 13.312C101.343 13.12 101.407 12.936 101.455 12.76C101.503 12.568 101.527 12.416 101.527 12.304C101.559 12.144 101.623 11.912 101.719 11.608C101.815 11.288 101.919 10.96 102.031 10.624C102.143 10.288 102.247 9.992 102.343 9.736C102.455 9.464 102.527 9.296 102.559 9.232C102.623 9.232 102.679 9.176 102.727 9.064C102.775 8.952 102.799 8.84 102.799 8.728C102.799 8.6 102.823 8.456 102.871 8.296C102.935 8.136 102.999 8.024 103.063 7.96C103.063 7.88 103.079 7.792 103.111 7.696C103.159 7.584 103.183 7.496 103.183 7.432C103.183 7.368 103.199 7.304 103.231 7.24C103.279 7.176 103.303 7.112 103.303 7.048C103.415 6.84 103.559 6.512 103.735 6.064C103.927 5.6 104.127 5.088 104.335 4.528C104.559 3.968 104.767 3.416 104.959 2.872C105.151 2.328 105.303 1.872 105.415 1.504C105.543 1.12 105.607 0.888 105.607 0.808C105.607 0.679999 105.639 0.583999 105.703 0.519999C105.767 0.455999 105.863 0.423999 105.991 0.423999C106.039 0.375999 106.095 0.343999 106.159 0.327999C106.239 0.311999 106.311 0.303999 106.375 0.303999C106.375 0.303999 106.407 0.335999 106.471 0.399999C106.535 0.463999 106.631 0.559999 106.759 0.688C106.887 0.799999 106.959 0.927999 106.975 1.072C107.007 1.216 107.023 1.384 107.023 1.576C107.023 1.784 106.999 1.968 106.951 2.128C106.903 2.288 106.807 2.52 106.663 2.824C106.519 3.128 106.295 3.6 105.991 4.24C105.863 4.56 105.727 4.864 105.583 5.152C105.439 5.424 105.367 5.592 105.367 5.656C105.367 5.72 105.335 5.816 105.271 5.944C105.223 6.072 105.167 6.232 105.103 6.424C105.039 6.552 104.951 6.744 104.839 7C104.727 7.24 104.607 7.504 104.479 7.792C104.367 8.064 104.271 8.304 104.191 8.512C104.111 8.704 104.071 8.816 104.071 8.848C104.071 8.912 104.063 8.976 104.047 9.04C104.047 9.104 104.015 9.168 103.951 9.232C103.887 9.232 103.847 9.28 103.831 9.376C103.831 9.456 103.831 9.496 103.831 9.496C103.831 9.656 103.703 10.08 103.447 10.768C103.191 11.648 102.951 12.456 102.727 13.192C102.519 13.928 102.415 14.52 102.415 14.968C102.415 15.352 102.407 15.608 102.391 15.736C102.375 15.848 102.303 15.936 102.175 16ZM111.149 15.952C111.037 16.016 110.885 15.992 110.693 15.88C110.517 15.768 110.341 15.6 110.165 15.376C110.053 15.184 109.973 14.976 109.925 14.752C109.893 14.528 109.877 14.216 109.877 13.816C109.893 13.496 109.877 13.288 109.829 13.192C109.797 13.096 109.709 13.112 109.565 13.24C109.421 13.352 109.173 13.584 108.821 13.936C108.421 14.336 108.037 14.648 107.669 14.872C107.317 15.096 107.029 15.2 106.805 15.184C106.693 15.184 106.565 15.128 106.421 15.016C106.293 14.888 106.173 14.736 106.061 14.56C105.949 14.368 105.853 14.176 105.773 13.984C105.677 13.632 105.661 13.184 105.725 12.64C105.805 12.08 105.933 11.496 106.109 10.888C106.285 10.28 106.485 9.704 106.709 9.16C106.949 8.616 107.189 8.176 107.429 7.84C107.685 7.504 107.909 7.336 108.101 7.336C108.229 7.336 108.341 7.4 108.437 7.528C108.549 7.656 108.661 7.856 108.773 8.128C108.837 8.24 108.861 8.336 108.845 8.416C108.845 8.496 108.781 8.592 108.653 8.704C108.509 8.896 108.341 9.184 108.149 9.568C107.973 9.952 107.797 10.368 107.621 10.816C107.461 11.264 107.317 11.696 107.189 12.112C107.061 12.528 106.973 12.872 106.925 13.144C106.877 13.4 106.885 13.528 106.949 13.528C107.173 13.528 107.437 13.44 107.741 13.264C108.061 13.072 108.365 12.84 108.653 12.568C108.989 12.232 109.285 11.864 109.541 11.464C109.813 11.064 110.085 10.64 110.357 10.192C110.565 9.872 110.781 9.52 111.005 9.136C111.245 8.752 111.397 8.48 111.461 8.32C111.685 7.904 111.853 7.624 111.965 7.48C112.077 7.32 112.213 7.216 112.373 7.168C112.453 7.168 112.525 7.168 112.589 7.168C112.669 7.168 112.709 7.168 112.709 7.168C112.805 7.184 112.917 7.256 113.045 7.384C113.173 7.448 113.245 7.512 113.261 7.576C113.277 7.624 113.285 7.688 113.285 7.768C113.221 7.928 113.117 8.168 112.973 8.488C112.845 8.792 112.749 9.016 112.685 9.16C112.381 9.848 112.077 10.528 111.773 11.2C111.485 11.856 111.277 12.528 111.149 13.216C111.117 13.44 111.109 13.704 111.125 14.008C111.157 14.296 111.205 14.504 111.269 14.632C111.317 14.728 111.373 14.84 111.437 14.968C111.517 15.08 111.605 15.176 111.701 15.256C111.845 15.352 111.869 15.456 111.773 15.568C111.693 15.68 111.581 15.776 111.437 15.856C111.293 15.92 111.197 15.952 111.149 15.952Z" fill="#2E2E2E"/>
</svg>
